<svg width="60" height="60" viewBox="0 0 60 60" fill="none" xmlns="http://www.w3.org/2000/svg">
<path fill-rule="evenodd" clip-rule="evenodd" d="M35.9543 6.74439C35.9845 6.50049 36 6.25206 36 6C36 2.68629 33.3137 0 30 0C26.6863 0 24 2.68629 24 6C24 6.25206 24.0155 6.50049 24.0457 6.74439C15.5751 8.90669 8.90668 15.5751 6.74438 24.0457C6.50049 24.0155 6.25206 24 6 24C2.68629 24 0 26.6863 0 30C0 33.3137 2.68629 36 6 36C9.31371 36 12 33.3137 12 30C12 33.3137 14.6863 36 18 36C21.3137 36 24 33.3137 24 30C24 33.3137 26.6863 36 30 36C33.3137 36 36 33.3137 36 30C36 33.3137 38.6863 36 42 36C45.3137 36 48 33.3137 48 30C48 33.3137 50.6863 36 54 36C57.3137 36 60 33.3137 60 30C60 26.6863 57.3137 24 54 24C53.7479 24 53.4995 24.0155 53.2556 24.0457C51.0933 15.5751 44.4249 8.90669 35.9543 6.74439ZM48 60L54 42H6L12 60H48Z" fill="#66BB6A"/>
</svg>
