<svg width="60" height="60" viewBox="0 0 60 60" fill="none" xmlns="http://www.w3.org/2000/svg">
<path fill-rule="evenodd" clip-rule="evenodd" d="M33.2031 11.3303C28.9375 15.5974 28.9375 22.5061 33.1719 26.7732L33.8927 27.282C33.7835 27.4179 33.674 27.5537 33.5644 27.6896L33.5632 27.6912L33.5631 27.6912C31.2868 30.5156 28.9653 33.396 27.1957 37.8495C25.9681 40.9389 25.0135 44.7598 24.4786 49.833C24.3457 49.4477 24.204 49.0674 24.0535 48.6911C23.1785 46.5037 22.0144 44.4765 20.578 42.4233C23.2401 39.4204 23.14 34.8144 20.2578 31.9312C16.4516 28.1237 5 27.5 5 27.5C5 27.5 5.62344 38.9556 9.42969 42.7631C11.7812 45.1155 15.2812 45.6079 18.125 44.2621L18.9941 43.6486C20.3403 45.5819 21.4024 47.4485 22.1965 49.4339C23.3906 52.4191 24 55.7265 24 60H26C26 49.5731 27.2423 43.1482 29.0543 38.588C30.7081 34.426 32.8517 31.764 35.1316 28.9327C35.264 28.7684 35.3968 28.6035 35.53 28.4376L36.25 28.9458C40.3125 30.8684 45.3125 30.165 48.6719 26.8045C54.1094 21.3651 55 5 55 5C55 5 38.6406 5.89094 33.2031 11.3303Z" fill="#66BB6A"/>
</svg>
